<svg version="1.1" xmlns="http://www.w3.org/2000/svg" viewBox="0 0 1723.482040666389 1717.600006103514" width="1723.482040666389" height="1717.600006103514">
  <!-- svg-source:excalidraw -->
  
  <defs>
    <style class="style-fonts">
      @font-face {
        font-family: "Virgil";
        src: url("https://excalidraw.com/Virgil.woff2");
      }
      @font-face {
        font-family: "Cascadia";
        src: url("https://excalidraw.com/Cascadia.woff2");
      }
      @font-face {
        font-family: "Assistant";
        src: url("https://excalidraw.com/Assistant-Regular.woff2");
      }
    </style>
    
  </defs>
  <rect x="0" y="0" width="1723.482040666389" height="1717.600006103514" fill="#ffffff"></rect><g stroke-linecap="round" transform="translate(10.682174943732093 791.8665987650544) rotate(0 164.80000305175778 192.79998016357422)"><path d="M32 0 C107.47 -2.28, 176.48 -2.03, 297.6 0 C315.4 3.12, 329.79 13.71, 329.6 32 C332.85 104.69, 329.29 176.08, 329.6 353.6 C326.42 376.82, 315.69 384.59, 297.6 385.6 C208.23 387.23, 124.33 385.44, 32 385.6 C11.19 388.87, -3.03 376.69, 0 353.6 C-4.86 257.11, -2.29 159.37, 0 32 C-1.39 11.25, 11.96 -2.06, 32 0" stroke="none" stroke-width="0" fill="#a5d8ff"></path><path d="M32 0 C109.6 0.38, 185.46 -1.77, 297.6 0 M32 0 C93.43 0.56, 154.32 0.25, 297.6 0 M297.6 0 C320.53 -0.37, 331.25 12.52, 329.6 32 M297.6 0 C319.5 0.36, 331.82 9.51, 329.6 32 M329.6 32 C331.68 143.35, 332.27 257.63, 329.6 353.6 M329.6 32 C330.89 131.61, 330.1 232.85, 329.6 353.6 M329.6 353.6 C328.79 374.09, 319.51 383.71, 297.6 385.6 M329.6 353.6 C330.71 372.92, 320.56 386.34, 297.6 385.6 M297.6 385.6 C237.4 385.78, 178.25 388.69, 32 385.6 M297.6 385.6 C225.85 384.94, 152.46 384.65, 32 385.6 M32 385.6 C10.19 386.48, -1.37 373.24, 0 353.6 M32 385.6 C9.75 384.53, -0.39 374, 0 353.6 M0 353.6 C-0.97 282.38, -0.75 212.28, 0 32 M0 353.6 C-0.89 261.18, -0.34 168.84, 0 32 M0 32 C-0.95 9.62, 10.51 0.84, 32 0 M0 32 C0.23 8.4, 10.68 -0.73, 32 0" stroke="#1e1e1e" stroke-width="2" fill="none"></path></g><g stroke-linecap="round"><g transform="translate(11.482162736700843 822.2665621439606) rotate(0 164.00001525878906 -0.40000152587890625)"><path d="M-0.02 0.82 C54.65 0.48, 274.58 -1.18, 329.14 -1.61 M-1.48 0.2 C53.03 -0.04, 274.17 -0.3, 328.79 -0.5" stroke="#1e1e1e" stroke-width="2" fill="none"></path></g></g><mask></mask><g stroke-linecap="round"><g transform="translate(13.08705705846387 1001.4443449014508) rotate(0 163.59754729642037 0.6903061439755334)"><path d="M-0.59 -0.05 C27.17 0.41, 111.96 1.24, 166.43 1.61 C220.9 1.97, 299.54 2.34, 326.23 2.12 M1.3 -1.12 C29.46 -0.95, 114.24 -0.64, 168.79 -0.4 C223.34 -0.16, 302.34 0.1, 328.61 0.32" stroke="#1e1e1e" stroke-width="2" fill="none"></path></g></g><mask></mask><g transform="translate(144.28218104724772 795.0665804545075) rotate(0 32.51996612548828 12.5)"><text x="0" y="17.52" font-family="Virgil, Segoe UI Emoji" font-size="20px" fill="#1e1e1e" text-anchor="start" style="white-space: pre;" direction="ltr" dominant-baseline="alphabetic">Cliente</text></g><g transform="translate(23.682144426153968 834.2665774027497) rotate(0 139.2268524169922 78.91871624793026)"><text x="0" y="13.826559086637387" font-family="Virgil, Segoe UI Emoji" font-size="15.78374324958606px" fill="#1e1e1e" text-anchor="start" style="white-space: pre;" direction="ltr" dominant-baseline="alphabetic">- idCliente: int               </text><text x="0" y="33.55623814861996" font-family="Virgil, Segoe UI Emoji" font-size="15.78374324958606px" fill="#1e1e1e" text-anchor="start" style="white-space: pre;" direction="ltr" dominant-baseline="alphabetic">- nome: string                 </text><text x="0" y="53.285917210602534" font-family="Virgil, Segoe UI Emoji" font-size="15.78374324958606px" fill="#1e1e1e" text-anchor="start" style="white-space: pre;" direction="ltr" dominant-baseline="alphabetic">- endereco: string              </text><text x="0" y="73.0155962725851" font-family="Virgil, Segoe UI Emoji" font-size="15.78374324958606px" fill="#1e1e1e" text-anchor="start" style="white-space: pre;" direction="ltr" dominant-baseline="alphabetic">- telefone: string              </text><text x="0" y="92.74527533456768" font-family="Virgil, Segoe UI Emoji" font-size="15.78374324958606px" fill="#1e1e1e" text-anchor="start" style="white-space: pre;" direction="ltr" dominant-baseline="alphabetic">- dataNascimento: date         </text><text x="0" y="112.47495439655026" font-family="Virgil, Segoe UI Emoji" font-size="15.78374324958606px" fill="#1e1e1e" text-anchor="start" style="white-space: pre;" direction="ltr" dominant-baseline="alphabetic">- renda: float              </text><text x="0" y="132.2046334585328" font-family="Virgil, Segoe UI Emoji" font-size="15.78374324958606px" fill="#1e1e1e" text-anchor="start" style="white-space: pre;" direction="ltr" dominant-baseline="alphabetic">- profissao: string             </text><text x="0" y="151.9343125205154" font-family="Virgil, Segoe UI Emoji" font-size="15.78374324958606px" fill="#1e1e1e" text-anchor="start" style="white-space: pre;" direction="ltr" dominant-baseline="alphabetic">- situacaoSocial: string </text></g><g transform="translate(20.482193254278968 1014.2665774027497) rotate(0 128.28211944919823 51.70001220703125)"><text x="0" y="14.492547421875" font-family="Virgil, Segoe UI Emoji" font-size="16.54400390625px" fill="#1e1e1e" text-anchor="start" style="white-space: pre;" direction="ltr" dominant-baseline="alphabetic">+ sacar(valor: float): void     </text><text x="0" y="35.1725523046875" font-family="Virgil, Segoe UI Emoji" font-size="16.54400390625px" fill="#1e1e1e" text-anchor="start" style="white-space: pre;" direction="ltr" dominant-baseline="alphabetic">+ depositar(valor: float): void </text><text x="0" y="55.852557187500004" font-family="Virgil, Segoe UI Emoji" font-size="16.54400390625px" fill="#1e1e1e" text-anchor="start" style="white-space: pre;" direction="ltr" dominant-baseline="alphabetic">+ transferir(valor: float,      </text><text x="0" y="76.53256207031251" font-family="Virgil, Segoe UI Emoji" font-size="16.54400390625px" fill="#1e1e1e" text-anchor="start" style="white-space: pre;" direction="ltr" dominant-baseline="alphabetic">  contaDestino: Conta): void  </text><text x="0" y="97.212566953125" font-family="Virgil, Segoe UI Emoji" font-size="16.54400390625px" fill="#1e1e1e" text-anchor="start" style="white-space: pre;" direction="ltr" dominant-baseline="alphabetic">+ consultarSaldo(): float</text></g><g stroke-linecap="round" transform="translate(1349.0819857347483 370.80004501342705) rotate(0 170.80001831054688 192.00000762939453)"><path d="M32 0 C121.51 0.51, 210.33 0.61, 309.6 0 C329.13 -2.51, 343.92 10.91, 341.6 32 C342.17 152.98, 339.81 269.86, 341.6 352 C344.18 372.78, 333.1 381.89, 309.6 384 C204.98 387.22, 99.13 383.61, 32 384 C11.99 382.52, 3.13 371.77, 0 352 C-0.89 242.01, -1.77 135.71, 0 32 C1.24 13.87, 14 -3.25, 32 0" stroke="none" stroke-width="0" fill="#a5d8ff"></path><path d="M32 0 C125.37 0.19, 218.81 -1.36, 309.6 0 M32 0 C135.36 -1.88, 240 -1.69, 309.6 0 M309.6 0 C331.59 1.27, 341.72 9.2, 341.6 32 M309.6 0 C328.65 -1.95, 343.74 11.3, 341.6 32 M341.6 32 C340.2 157.12, 340.62 285.07, 341.6 352 M341.6 32 C342.76 135.93, 342.38 240.46, 341.6 352 M341.6 352 C341.13 372.88, 332.1 383.62, 309.6 384 M341.6 352 C339.33 374.84, 330.61 385.39, 309.6 384 M309.6 384 C223.7 382.55, 138.69 383.31, 32 384 M309.6 384 C247.67 385.05, 187.72 385.75, 32 384 M32 384 C11.54 384.91, -0.3 374.98, 0 352 M32 384 C9.24 382.26, -0.48 374.2, 0 352 M0 352 C-0.92 228.17, -0.16 105.01, 0 32 M0 352 C0.4 262.87, 0.5 173.3, 0 32 M0 32 C1.93 10.47, 8.89 -0.98, 32 0 M0 32 C0.64 12.47, 11 1.88, 32 0" stroke="#1e1e1e" stroke-width="2" fill="none"></path></g><g stroke-linecap="round"><g transform="translate(1346.6822054613108 405.19999313354424) rotate(0 170.80001831054688 -0.39998626708984375)"><path d="M-0.98 -0.34 C56.19 -0.44, 285.09 -0.17, 342.34 -0.22 M0.7 -1.57 C57.84 -2.05, 284.86 -2.43, 341.78 -2.04" stroke="#1e1e1e" stroke-width="2" fill="none"></path></g></g><mask></mask><g transform="translate(1445.882217668342 374.79999923705986) rotate(0 74.38993835449219 12.5)"><text x="0" y="17.52" font-family="Virgil, Segoe UI Emoji" font-size="20px" fill="#1e1e1e" text-anchor="start" style="white-space: pre;" direction="ltr" dominant-baseline="alphabetic">Conta corrente</text></g><g stroke-linecap="round" transform="translate(1355.973196241232 805.9999580383294) rotate(0 170.80001831054688 192.00000762939453)"><path d="M32 0 C93.66 -3.98, 158.23 -0.01, 309.6 0 C331.82 2.46, 343.97 13.7, 341.6 32 C341.75 119.15, 345.01 211.12, 341.6 352 C338.05 376.67, 328.59 381.1, 309.6 384 C244.95 386.92, 174.49 386.47, 32 384 C13.93 384.84, -1.35 372.46, 0 352 C3.23 245.88, -0.43 136.12, 0 32 C-2.45 11.05, 10.63 -2.53, 32 0" stroke="none" stroke-width="0" fill="#a5d8ff"></path><path d="M32 0 C108.29 -1.14, 181.45 -0.46, 309.6 0 M32 0 C95.94 1.39, 159.03 1.71, 309.6 0 M309.6 0 C330.18 0.37, 343.52 8.77, 341.6 32 M309.6 0 C333 -1.05, 342.22 10.11, 341.6 32 M341.6 32 C342.55 124.97, 343.13 219.92, 341.6 352 M341.6 32 C341.01 123.91, 341.76 216.12, 341.6 352 M341.6 352 C341.88 372.43, 331.81 384.18, 309.6 384 M341.6 352 C340.86 375.3, 331.2 385.53, 309.6 384 M309.6 384 C218.77 382.55, 129.63 383.86, 32 384 M309.6 384 C244.94 383.05, 180.34 382.44, 32 384 M32 384 C10.17 383.86, 0.75 374.63, 0 352 M32 384 C11.42 385.93, -1.45 371.04, 0 352 M0 352 C0.54 267.04, 0.06 181.45, 0 32 M0 352 C-2.02 257.87, -2.2 164.42, 0 32 M0 32 C-2 10.1, 9.46 -0.19, 32 0 M0 32 C0.63 10.21, 12.81 1.14, 32 0" stroke="#1e1e1e" stroke-width="2" fill="none"></path></g><g stroke-linecap="round"><g transform="translate(1354.3734037607633 844.3999671936028) rotate(0 170.80001831054688 -0.39998626708984375)"><path d="M-0.57 -0.89 C56.32 -1.3, 284.56 -1.56, 341.56 -1.65 M1.33 1.25 C58.04 0.91, 284.04 -0.28, 340.59 -0.55" stroke="#1e1e1e" stroke-width="2" fill="none"></path></g></g><mask></mask><g transform="translate(1453.5734159677945 813.9999732971185) rotate(0 78.07994079589844 12.5)"><text x="0" y="17.52" font-family="Virgil, Segoe UI Emoji" font-size="20px" fill="#1e1e1e" text-anchor="start" style="white-space: pre;" direction="ltr" dominant-baseline="alphabetic">Conta poupança</text></g><g stroke-linecap="round"><g transform="translate(1348.282120012092 578.8000259399407) rotate(0 170.79998779296875 0)"><path d="M-1.19 0.2 C55.38 0.12, 283.18 0.53, 340.48 0.69 M0.38 -0.75 C57.22 -0.66, 285.61 -1.1, 342.6 -1.07" stroke="#1e1e1e" stroke-width="2" fill="none"></path></g></g><mask></mask><g stroke-linecap="round"><g transform="translate(1354.6820833909983 1009.1999588012688) rotate(0 170.79998779296875 0)"><path d="M0.16 0.18 C56.99 0.39, 284.27 0.01, 341.17 0.08 M-1.22 -0.77 C55.41 -0.25, 282.99 1.77, 339.99 1.66" stroke="#1e1e1e" stroke-width="2" fill="none"></path></g></g><mask></mask><g transform="translate(1362.0822298753733 420.4000473022454) rotate(0 168.39991760253906 62.5)"><text x="0" y="17.52" font-family="Virgil, Segoe UI Emoji" font-size="20px" fill="#1e1e1e" text-anchor="start" style="white-space: pre;" direction="ltr" dominant-baseline="alphabetic">- numeroConta: int              </text><text x="0" y="42.519999999999996" font-family="Virgil, Segoe UI Emoji" font-size="20px" fill="#1e1e1e" text-anchor="start" style="white-space: pre;" direction="ltr" dominant-baseline="alphabetic">- saldo: float                  </text><text x="0" y="67.52" font-family="Virgil, Segoe UI Emoji" font-size="20px" fill="#1e1e1e" text-anchor="start" style="white-space: pre;" direction="ltr" dominant-baseline="alphabetic">- dataAbertura: date            </text><text x="0" y="92.52" font-family="Virgil, Segoe UI Emoji" font-size="20px" fill="#1e1e1e" text-anchor="start" style="white-space: pre;" direction="ltr" dominant-baseline="alphabetic">- limiteChequeEspecial: float   </text><text x="0" y="117.52" font-family="Virgil, Segoe UI Emoji" font-size="20px" fill="#1e1e1e" text-anchor="start" style="white-space: pre;" direction="ltr" dominant-baseline="alphabetic">- cliente: Cliente</text></g><g transform="translate(1359.4820101488108 590.0000839233392) rotate(0 142.44176975389416 66.72487503097602)"><text x="0" y="15.586930807235998" font-family="Virgil, Segoe UI Emoji" font-size="17.79330000826027px" fill="#1e1e1e" text-anchor="start" style="white-space: pre;" direction="ltr" dominant-baseline="alphabetic">+ sacar(valor: float): void     </text><text x="0" y="37.82855581756134" font-family="Virgil, Segoe UI Emoji" font-size="17.79330000826027px" fill="#1e1e1e" text-anchor="start" style="white-space: pre;" direction="ltr" dominant-baseline="alphabetic">+ depositar(valor: float): void </text><text x="0" y="60.070180827886674" font-family="Virgil, Segoe UI Emoji" font-size="17.79330000826027px" fill="#1e1e1e" text-anchor="start" style="white-space: pre;" direction="ltr" dominant-baseline="alphabetic">+ transferir(valor: float,      </text><text x="0" y="82.31180583821202" font-family="Virgil, Segoe UI Emoji" font-size="17.79330000826027px" fill="#1e1e1e" text-anchor="start" style="white-space: pre;" direction="ltr" dominant-baseline="alphabetic">    contaDestino: Conta): void  </text><text x="0" y="104.55343084853736" font-family="Virgil, Segoe UI Emoji" font-size="17.79330000826027px" fill="#1e1e1e" text-anchor="start" style="white-space: pre;" direction="ltr" dominant-baseline="alphabetic">+ consultarSaldo(): float       </text><text x="0" y="126.7950558588627" font-family="Virgil, Segoe UI Emoji" font-size="17.79330000826027px" fill="#1e1e1e" text-anchor="start" style="white-space: pre;" direction="ltr" dominant-baseline="alphabetic">+ gerarExtrato(): void</text></g><g transform="translate(1366.6822054613108 860.4001235961907) rotate(0 173.39991760253906 62.5)"><text x="0" y="17.52" font-family="Virgil, Segoe UI Emoji" font-size="20px" fill="#1e1e1e" text-anchor="start" style="white-space: pre;" direction="ltr" dominant-baseline="alphabetic"> - numeroConta: int              </text><text x="0" y="42.519999999999996" font-family="Virgil, Segoe UI Emoji" font-size="20px" fill="#1e1e1e" text-anchor="start" style="white-space: pre;" direction="ltr" dominant-baseline="alphabetic"> - saldo: float                  </text><text x="0" y="67.52" font-family="Virgil, Segoe UI Emoji" font-size="20px" fill="#1e1e1e" text-anchor="start" style="white-space: pre;" direction="ltr" dominant-baseline="alphabetic"> - dataAbertura: date            </text><text x="0" y="92.52" font-family="Virgil, Segoe UI Emoji" font-size="20px" fill="#1e1e1e" text-anchor="start" style="white-space: pre;" direction="ltr" dominant-baseline="alphabetic"> - taxaRendimento: float         </text><text x="0" y="117.52" font-family="Virgil, Segoe UI Emoji" font-size="20px" fill="#1e1e1e" text-anchor="start" style="white-space: pre;" direction="ltr" dominant-baseline="alphabetic"> - cliente: Cliente </text></g><g transform="translate(1372.2821810472483 1023.1782797833471) rotate(0 162.69306521641715 60.640045698430185)"><text x="0" y="14.165514675153302" font-family="Virgil, Segoe UI Emoji" font-size="16.170678852914726px" fill="#1e1e1e" text-anchor="start" style="white-space: pre;" direction="ltr" dominant-baseline="alphabetic">+ depositar(valor: float): void </text><text x="0" y="34.37886324129671" font-family="Virgil, Segoe UI Emoji" font-size="16.170678852914726px" fill="#1e1e1e" text-anchor="start" style="white-space: pre;" direction="ltr" dominant-baseline="alphabetic">+ transferir(valor: float,      </text><text x="0" y="54.59221180744012" font-family="Virgil, Segoe UI Emoji" font-size="16.170678852914726px" fill="#1e1e1e" text-anchor="start" style="white-space: pre;" direction="ltr" dominant-baseline="alphabetic">   contaDestino: Conta): void  </text><text x="0" y="74.80556037358353" font-family="Virgil, Segoe UI Emoji" font-size="16.170678852914726px" fill="#1e1e1e" text-anchor="start" style="white-space: pre;" direction="ltr" dominant-baseline="alphabetic">+ consultarSaldo(): float      </text><text x="0" y="95.01890893972694" font-family="Virgil, Segoe UI Emoji" font-size="16.170678852914726px" fill="#1e1e1e" text-anchor="start" style="white-space: pre;" direction="ltr" dominant-baseline="alphabetic">+ gerarExtrato(): void          </text><text x="0" y="115.23225750587035" font-family="Virgil, Segoe UI Emoji" font-size="16.170678852914726px" fill="#1e1e1e" text-anchor="start" style="white-space: pre;" direction="ltr" dominant-baseline="alphabetic">+ calcularRendimento(periodo: int): float </text></g><g stroke-linecap="round" transform="translate(1364.3831881778074 1323.599990844725) rotate(0 170.80001831054688 192.00000762939453)"><path d="M32 0 C102.73 -3.73, 177.79 -0.71, 309.6 0 C330.52 0.16, 345.08 10.77, 341.6 32 C346.47 121.6, 342.26 209.21, 341.6 352 C340.95 373.04, 333.36 385.93, 309.6 384 C242.38 389.57, 168.01 389.75, 32 384 C11.06 381.37, 2.01 370.61, 0 352 C3.93 273.66, 3.25 195.72, 0 32 C-2.42 13.31, 10.56 1.97, 32 0" stroke="none" stroke-width="0" fill="#a5d8ff"></path><path d="M32 0 C121.81 0.09, 208.79 -1.14, 309.6 0 M32 0 C108.02 -1.09, 183.21 -0.62, 309.6 0 M309.6 0 C329.13 0.6, 339.63 10.29, 341.6 32 M309.6 0 C331.6 1.7, 341.63 10.02, 341.6 32 M341.6 32 C342.72 149.57, 342.27 269.66, 341.6 352 M341.6 32 C343.19 158.11, 342.9 284.61, 341.6 352 M341.6 352 C340.54 375.19, 331.53 385.54, 309.6 384 M341.6 352 C340.23 375.56, 331.95 383.46, 309.6 384 M309.6 384 C207.7 381.54, 107.31 384.36, 32 384 M309.6 384 C222.75 384.43, 134.11 383.87, 32 384 M32 384 C11.43 382.52, -0.33 373.08, 0 352 M32 384 C12.8 384.18, -0.17 374.83, 0 352 M0 352 C1.89 226.41, 0.88 101.23, 0 32 M0 352 C-0.13 224.6, -0.47 98.06, 0 32 M0 32 C1.96 11.64, 8.67 -1.99, 32 0 M0 32 C-1.96 12.82, 11.51 1.23, 32 0" stroke="#1e1e1e" stroke-width="2" fill="none"></path></g><g stroke-linecap="round"><g transform="translate(1362.7833956973386 1361.9999999999984) rotate(0 170.80001831054688 -0.39998626708984375)"><path d="M0.16 -0.35 C56.95 -0.7, 283.89 -1.13, 340.8 -1.14 M-1.21 -1.58 C55.95 -1.83, 286.08 0.38, 343.1 0.22" stroke="#1e1e1e" stroke-width="2" fill="none"></path></g></g><mask></mask><g transform="translate(1473.1834201114011 1330.799972534178) rotate(0 52.909942626953125 12.5)"><text x="0" y="17.52" font-family="Virgil, Segoe UI Emoji" font-size="20px" fill="#1e1e1e" text-anchor="start" style="white-space: pre;" direction="ltr" dominant-baseline="alphabetic">Emprestimo</text></g><g stroke-linecap="round"><g transform="translate(1363.0920753275736 1526.7999916076644) rotate(0 170.79998779296875 0)"><path d="M0.05 0.42 C57.25 0.39, 285.44 -0.49, 342.42 -0.53 M-1.38 -0.4 C55.81 -0.25, 284.78 0.39, 341.9 0.73" stroke="#1e1e1e" stroke-width="2" fill="none"></path></g></g><mask></mask><g transform="translate(1375.892215708433 1365.2369334462765) rotate(0 129.0699005126953 75.98161758167055)"><text x="0" y="13.311979400308676" font-family="Virgil, Segoe UI Emoji" font-size="15.196323516334104px" fill="#1e1e1e" text-anchor="start" style="white-space: pre;" direction="ltr" dominant-baseline="alphabetic"> - idEmprestimo: int             </text><text x="0" y="32.30738379572631" font-family="Virgil, Segoe UI Emoji" font-size="15.196323516334104px" fill="#1e1e1e" text-anchor="start" style="white-space: pre;" direction="ltr" dominant-baseline="alphabetic"> - valorEmprestimo: float        </text><text x="0" y="51.30278819114393" font-family="Virgil, Segoe UI Emoji" font-size="15.196323516334104px" fill="#1e1e1e" text-anchor="start" style="white-space: pre;" direction="ltr" dominant-baseline="alphabetic"> - dataInicio: date              </text><text x="0" y="70.29819258656157" font-family="Virgil, Segoe UI Emoji" font-size="15.196323516334104px" fill="#1e1e1e" text-anchor="start" style="white-space: pre;" direction="ltr" dominant-baseline="alphabetic"> - dataVencimento: date          </text><text x="0" y="89.29359698197919" font-family="Virgil, Segoe UI Emoji" font-size="15.196323516334104px" fill="#1e1e1e" text-anchor="start" style="white-space: pre;" direction="ltr" dominant-baseline="alphabetic"> - taxaJuros: float              </text><text x="0" y="108.28900137739683" font-family="Virgil, Segoe UI Emoji" font-size="15.196323516334104px" fill="#1e1e1e" text-anchor="start" style="white-space: pre;" direction="ltr" dominant-baseline="alphabetic"> - parcelas: int                 </text><text x="0" y="127.28440577281445" font-family="Virgil, Segoe UI Emoji" font-size="15.196323516334104px" fill="#1e1e1e" text-anchor="start" style="white-space: pre;" direction="ltr" dominant-baseline="alphabetic"> - cliente: Cliente              </text><text x="0" y="146.27981016823207" font-family="Virgil, Segoe UI Emoji" font-size="15.196323516334104px" fill="#1e1e1e" text-anchor="start" style="white-space: pre;" direction="ltr" dominant-baseline="alphabetic"> - contaDestino: Conta   </text></g><g transform="translate(1374.6822664964661 1547.5999984741195) rotate(0 161.9818437694944 41.20001220703125)"><text x="0" y="14.436484277343745" font-family="Virgil, Segoe UI Emoji" font-size="16.480004882812494px" fill="#1e1e1e" text-anchor="start" style="white-space: pre;" direction="ltr" dominant-baseline="alphabetic">+ simular(valor: float, prazo: int): float</text><text x="0" y="35.03649038085936" font-family="Virgil, Segoe UI Emoji" font-size="16.480004882812494px" fill="#1e1e1e" text-anchor="start" style="white-space: pre;" direction="ltr" dominant-baseline="alphabetic">+ contratar(): void             </text><text x="0" y="55.63649648437498" font-family="Virgil, Segoe UI Emoji" font-size="16.480004882812494px" fill="#1e1e1e" text-anchor="start" style="white-space: pre;" direction="ltr" dominant-baseline="alphabetic">+ efetuarPagamento(parcela: int): void </text><text x="0" y="76.2365025878906" font-family="Virgil, Segoe UI Emoji" font-size="16.480004882812494px" fill="#1e1e1e" text-anchor="start" style="white-space: pre;" direction="ltr" dominant-baseline="alphabetic">+ consultarSituacao(): string </text></g><g stroke-linecap="round" transform="translate(589.287582213054 792.3999481201163) rotate(0 170.80001831054688 192.00000762939453)"><path d="M32 0 C133.76 -4.26, 236.22 -1.75, 309.6 0 C333.72 2.43, 345.12 12.85, 341.6 32 C341.45 116.85, 339.26 208.76, 341.6 352 C342.18 370.03, 329.56 386.5, 309.6 384 C243.82 385.19, 175.19 387.44, 32 384 C7.64 387.2, 1.98 369.74, 0 352 C1.85 284.61, 2.18 214.99, 0 32 C0.11 14.1, 8.69 -0.78, 32 0" stroke="none" stroke-width="0" fill="#a5d8ff"></path><path d="M32 0 C107.96 -0.94, 181.59 -1.67, 309.6 0 M32 0 C118.57 1.77, 206.55 1.72, 309.6 0 M309.6 0 C331.67 -0.04, 339.63 10.79, 341.6 32 M309.6 0 C328.96 -0.94, 343.48 9.59, 341.6 32 M341.6 32 C342.43 109.26, 343.89 185.34, 341.6 352 M341.6 32 C342.67 159.12, 341.82 285.89, 341.6 352 M341.6 352 C340.52 373.74, 329 384.75, 309.6 384 M341.6 352 C342.76 374.78, 331.61 383.8, 309.6 384 M309.6 384 C199.42 383.18, 90.09 383.32, 32 384 M309.6 384 C243.3 381.37, 176.8 382.37, 32 384 M32 384 C10.18 385.92, 0.38 374.86, 0 352 M32 384 C9.47 382.9, -1.53 373.9, 0 352 M0 352 C0.9 243.42, -1.13 135.37, 0 32 M0 352 C-0.46 239.6, -0.19 125.72, 0 32 M0 32 C1.23 8.86, 9.23 0.46, 32 0 M0 32 C1.38 10.97, 11.85 -0.16, 32 0" stroke="#1e1e1e" stroke-width="2" fill="none"></path></g><g stroke-linecap="round"><g transform="translate(587.6877897325852 830.7999572753897) rotate(0 170.80001831054688 -0.39998626708984375)"><path d="M0.62 0.25 C57.4 -0.02, 284.65 -0.26, 341.65 -0.63 M-0.51 -0.66 C56.03 -0.2, 283.58 1.1, 340.73 1" stroke="#1e1e1e" stroke-width="2" fill="none"></path></g></g><mask></mask><g transform="translate(733.287826353679 799.5999298095694) rotate(0 29.16998291015625 12.5)"><text x="0" y="17.52" font-family="Virgil, Segoe UI Emoji" font-size="20px" fill="#1e1e1e" text-anchor="start" style="white-space: pre;" direction="ltr" dominant-baseline="alphabetic">Banco</text></g><g stroke-linecap="round"><g transform="translate(587.9964693628202 995.5999488830557) rotate(0 170.79998779296875 0)"><path d="M1.02 -1.15 C57.76 -1.26, 283.73 -0.55, 340.49 -0.45 M0.09 0.86 C57.18 0.9, 285.84 0.91, 342.62 0.86" stroke="#1e1e1e" stroke-width="2" fill="none"></path></g></g><mask></mask><g transform="translate(599.1966341577421 841.2368724111209) rotate(0 147.07237163310168 57.48851098854408)"><text x="0" y="16.115179400308676" font-family="Virgil, Segoe UI Emoji" font-size="18.396323516334103px" fill="#1e1e1e" text-anchor="start" style="white-space: pre;" direction="ltr" dominant-baseline="alphabetic">- idBanco: int                  </text><text x="0" y="39.110583795726306" font-family="Virgil, Segoe UI Emoji" font-size="18.396323516334103px" fill="#1e1e1e" text-anchor="start" style="white-space: pre;" direction="ltr" dominant-baseline="alphabetic">- nomeBanco: string             </text><text x="0" y="62.105988191143936" font-family="Virgil, Segoe UI Emoji" font-size="18.396323516334103px" fill="#1e1e1e" text-anchor="start" style="white-space: pre;" direction="ltr" dominant-baseline="alphabetic">- endereco: string              </text><text x="0" y="85.10139258656156" font-family="Virgil, Segoe UI Emoji" font-size="18.396323516334103px" fill="#1e1e1e" text-anchor="start" style="white-space: pre;" direction="ltr" dominant-baseline="alphabetic">- telefone: string              </text><text x="0" y="108.0967969819792" font-family="Virgil, Segoe UI Emoji" font-size="18.396323516334103px" fill="#1e1e1e" text-anchor="start" style="white-space: pre;" direction="ltr" dominant-baseline="alphabetic">- gerente: string  </text></g><g transform="translate(602.6819613206848 1018.858270528146) rotate(0 152.29971313476562 58.941793558767074)"><text x="0" y="13.768802975327986" font-family="Virgil, Segoe UI Emoji" font-size="15.717811615671218px" fill="#1e1e1e" text-anchor="start" style="white-space: pre;" direction="ltr" dominant-baseline="alphabetic">+ abrirContaCorrente(cliente: Cliente): </text><text x="0" y="33.41606749491701" font-family="Virgil, Segoe UI Emoji" font-size="15.717811615671218px" fill="#1e1e1e" text-anchor="start" style="white-space: pre;" direction="ltr" dominant-baseline="alphabetic">ContaCorrente </text><text x="0" y="53.06333201450603" font-family="Virgil, Segoe UI Emoji" font-size="15.717811615671218px" fill="#1e1e1e" text-anchor="start" style="white-space: pre;" direction="ltr" dominant-baseline="alphabetic">+ abrirContaPoupanca(cliente: Cliente):</text><text x="0" y="72.71059653409506" font-family="Virgil, Segoe UI Emoji" font-size="15.717811615671218px" fill="#1e1e1e" text-anchor="start" style="white-space: pre;" direction="ltr" dominant-baseline="alphabetic">ContaPoupanca </text><text x="0" y="92.35786105368408" font-family="Virgil, Segoe UI Emoji" font-size="15.717811615671218px" fill="#1e1e1e" text-anchor="start" style="white-space: pre;" direction="ltr" dominant-baseline="alphabetic">+ concederEmprestimo(cliente: Cliente, </text><text x="0" y="112.00512557327309" font-family="Virgil, Segoe UI Emoji" font-size="15.717811615671218px" fill="#1e1e1e" text-anchor="start" style="white-space: pre;" direction="ltr" dominant-baseline="alphabetic">valor: float, prazo: int): Empréstimo</text></g><g stroke-linecap="round" transform="translate(533.7377559953317 10) rotate(0 272.800048828125 192.00000762939453)"><path d="M32 0 C220.19 -0.13, 407.58 0.52, 513.6 0 C536.7 3.14, 548.56 9.41, 545.6 32 C545.14 155.32, 543.54 275.4, 545.6 352 C544.06 375.85, 532.55 383.6, 513.6 384 C387.23 381.58, 264.51 380.96, 32 384 C10.84 384.84, 3.31 371.48, 0 352 C-4.59 249.4, -4.9 150.78, 0 32 C-3.34 8.42, 9.38 -0.76, 32 0" stroke="none" stroke-width="0" fill="#a5d8ff"></path><path d="M32 0 C166.35 0.07, 302.41 0.2, 513.6 0 M32 0 C184.2 -1.46, 337.18 -0.91, 513.6 0 M513.6 0 C534.49 -1.91, 545.78 10.57, 545.6 32 M513.6 0 C533.22 1.38, 544.18 10.73, 545.6 32 M545.6 32 C544.24 118.69, 543.96 204.02, 545.6 352 M545.6 32 C543.82 132.37, 543.55 232.51, 545.6 352 M545.6 352 C546.84 372.48, 535.64 385.56, 513.6 384 M545.6 352 C545.11 371.54, 535.27 383.94, 513.6 384 M513.6 384 C370.87 382.9, 229.05 383.43, 32 384 M513.6 384 C374.35 385.69, 235.33 385.17, 32 384 M32 384 C10.8 383.72, 1.98 373.16, 0 352 M32 384 C8.57 383.52, 1.75 372.29, 0 352 M0 352 C0.72 260.75, 0.36 168.41, 0 32 M0 352 C-0.16 285.88, -0.6 220.14, 0 32 M0 32 C0.39 12.44, 11.43 -0.1, 32 0 M0 32 C1.19 12.59, 11.24 -1.13, 32 0" stroke="#1e1e1e" stroke-width="2" fill="none"></path></g><g stroke-linecap="round"><g transform="translate(532.1379635148629 48.40000915527344) rotate(0 273.20001220703125 0.4000091552734375)"><path d="M0.25 0.46 C91.38 0.79, 455.85 0.82, 546.84 1 M-1.08 -0.34 C89.92 -0.32, 455.06 -1, 546.12 -1.02" stroke="#1e1e1e" stroke-width="2" fill="none"></path></g></g><mask></mask><g transform="translate(752.9380123429879 17.199935913085938) rotate(0 51.14994812011719 12.5)"><text x="0" y="17.52" font-family="Virgil, Segoe UI Emoji" font-size="20px" fill="#1e1e1e" text-anchor="start" style="white-space: pre;" direction="ltr" dominant-baseline="alphabetic">Funcionário</text></g><g stroke-linecap="round"><g transform="translate(532.4466431450979 213.20000076293945) rotate(0 272.79998779296875 0.8000030517578125)"><path d="M-0.25 0.72 C90.51 0.84, 453.87 0.67, 545 0.97 M1.82 0.04 C92.94 0.3, 456.65 2.07, 547.39 2.17" stroke="#1e1e1e" stroke-width="2" fill="none"></path></g></g><mask></mask><g transform="translate(543.6468079400198 58.83692429100461) rotate(0 148.00262451171875 68.98621318625288)"><text x="0" y="16.115179400308676" font-family="Virgil, Segoe UI Emoji" font-size="18.396323516334103px" fill="#1e1e1e" text-anchor="start" style="white-space: pre;" direction="ltr" dominant-baseline="alphabetic"> - idFuncionario: int            </text><text x="0" y="39.110583795726306" font-family="Virgil, Segoe UI Emoji" font-size="18.396323516334103px" fill="#1e1e1e" text-anchor="start" style="white-space: pre;" direction="ltr" dominant-baseline="alphabetic"> - nome: string                 </text><text x="0" y="62.105988191143936" font-family="Virgil, Segoe UI Emoji" font-size="18.396323516334103px" fill="#1e1e1e" text-anchor="start" style="white-space: pre;" direction="ltr" dominant-baseline="alphabetic"> - cargo: string                 </text><text x="0" y="85.10139258656156" font-family="Virgil, Segoe UI Emoji" font-size="18.396323516334103px" fill="#1e1e1e" text-anchor="start" style="white-space: pre;" direction="ltr" dominant-baseline="alphabetic"> - login: string                 </text><text x="0" y="108.0967969819792" font-family="Virgil, Segoe UI Emoji" font-size="18.396323516334103px" fill="#1e1e1e" text-anchor="start" style="white-space: pre;" direction="ltr" dominant-baseline="alphabetic"> - senha: string                 </text><text x="0" y="131.09220137739683" font-family="Virgil, Segoe UI Emoji" font-size="18.396323516334103px" fill="#1e1e1e" text-anchor="start" style="white-space: pre;" direction="ltr" dominant-baseline="alphabetic"> - banco: Banco </text></g><g transform="translate(547.1321351029625 236.45832240802974) rotate(0 265.8997192382812 68.76542581856158)"><text x="0" y="13.768802975327986" font-family="Virgil, Segoe UI Emoji" font-size="15.717811615671218px" fill="#1e1e1e" text-anchor="start" style="white-space: pre;" direction="ltr" dominant-baseline="alphabetic">+ efetuarSaque(cliente: Cliente, conta: Conta, valor: float): void </text><text x="0" y="33.41606749491701" font-family="Virgil, Segoe UI Emoji" font-size="15.717811615671218px" fill="#1e1e1e" text-anchor="start" style="white-space: pre;" direction="ltr" dominant-baseline="alphabetic">+ realizarDeposito(cliente: Cliente, conta: Conta, valor: float): void </text><text x="0" y="53.06333201450603" font-family="Virgil, Segoe UI Emoji" font-size="15.717811615671218px" fill="#1e1e1e" text-anchor="start" style="white-space: pre;" direction="ltr" dominant-baseline="alphabetic">+ transferirValor(contaOrigem: Conta, contaDestino: Conta, valor: </text><text x="0" y="72.71059653409506" font-family="Virgil, Segoe UI Emoji" font-size="15.717811615671218px" fill="#1e1e1e" text-anchor="start" style="white-space: pre;" direction="ltr" dominant-baseline="alphabetic">float): void </text><text x="0" y="92.35786105368408" font-family="Virgil, Segoe UI Emoji" font-size="15.717811615671218px" fill="#1e1e1e" text-anchor="start" style="white-space: pre;" direction="ltr" dominant-baseline="alphabetic">+ realizarPagamentoEmprestimo(cliente: Cliente, emprestimo: </text><text x="0" y="112.00512557327309" font-family="Virgil, Segoe UI Emoji" font-size="15.717811615671218px" fill="#1e1e1e" text-anchor="start" style="white-space: pre;" direction="ltr" dominant-baseline="alphabetic">Empréstimo, valor: float): void;</text><text x="0" y="131.6523900928621" font-family="Virgil, Segoe UI Emoji" font-size="15.717811615671218px" fill="#1e1e1e" text-anchor="start" style="white-space: pre;" direction="ltr" dominant-baseline="alphabetic">+ criarCliente(): Cliente </text></g><g stroke-linecap="round"><g transform="translate(359.48247808500827 964.8031552826384) rotate(0 108.4316549374634 -1.1246651802310907)"><path d="M-0.84 -0.56 C35.58 -1.01, 181.15 -2.31, 217.39 -2.42 M0.92 1.76 C37.33 1.48, 180.92 -0.17, 216.72 -0.97" stroke="#1e1e1e" stroke-width="2" fill="none"></path></g><g transform="translate(359.48247808500827 964.8031552826384) rotate(0 108.4316549374634 -1.1246651802310907)"><path d="M193.37 7.96 C197.21 7.16, 202.66 4.01, 216.72 -0.97 M193.37 7.96 C201.72 5.52, 212.16 1, 216.72 -0.97" stroke="#1e1e1e" stroke-width="2" fill="none"></path></g><g transform="translate(359.48247808500827 964.8031552826384) rotate(0 108.4316549374634 -1.1246651802310907)"><path d="M193.09 -9.14 C197.04 -6.42, 202.54 -6.06, 216.72 -0.97 M193.09 -9.14 C201.4 -4.99, 211.94 -2.91, 216.72 -0.97" stroke="#1e1e1e" stroke-width="2" fill="none"></path></g></g><mask></mask><g stroke-linecap="round"><g transform="translate(955.4822848070129 828.1331761678056) rotate(0 187.33342488606763 -89.99997456868488)"><path d="M0.45 0.55 C62.93 -29.26, 312.78 -148.75, 375.22 -178.83 M-0.78 -0.21 C61.57 -30.32, 312.01 -150.61, 374.56 -180.33" stroke="#1e1e1e" stroke-width="2" fill="none"></path></g><g transform="translate(955.4822848070129 828.1331761678056) rotate(0 187.33342488606763 -89.99997456868488)"><path d="M357.06 -162.48 C363.69 -167.46, 370.46 -173.49, 374.56 -180.33 M357.06 -162.48 C362.69 -168.88, 368.56 -173.02, 374.56 -180.33" stroke="#1e1e1e" stroke-width="2" fill="none"></path></g><g transform="translate(955.4822848070129 828.1331761678056) rotate(0 187.33342488606763 -89.99997456868488)"><path d="M349.68 -177.91 C358.73 -177.87, 367.91 -178.85, 374.56 -180.33 M349.68 -177.91 C357.53 -179.56, 365.67 -178.96, 374.56 -180.33" stroke="#1e1e1e" stroke-width="2" fill="none"></path></g></g><mask></mask><g stroke-linecap="round"><g transform="translate(951.4821423916482 1001.4665095011386) rotate(0 190.00015258789062 0.000025431315123114473)"><path d="M-0.88 -1.16 C62.54 -1.07, 315.8 0.24, 379.45 0.54 M0.86 0.84 C64.17 0.58, 314.89 -0.93, 378.21 -1.3" stroke="#1e1e1e" stroke-width="2" fill="none"></path></g><g transform="translate(951.4821423916482 1001.4665095011386) rotate(0 190.00015258789062 0.000025431315123114473)"><path d="M354.77 7.39 C357.77 4.81, 365.54 5.62, 378.21 -1.3 M354.77 7.39 C362.04 4.96, 371.4 0.42, 378.21 -1.3" stroke="#1e1e1e" stroke-width="2" fill="none"></path></g><g transform="translate(951.4821423916482 1001.4665095011386) rotate(0 190.00015258789062 0.000025431315123114473)"><path d="M354.67 -9.71 C357.68 -8.69, 365.48 -4.28, 378.21 -1.3 M354.67 -9.71 C362.07 -6.11, 371.47 -4.62, 378.21 -1.3" stroke="#1e1e1e" stroke-width="2" fill="none"></path></g></g><mask></mask><g stroke-linecap="round"><g transform="translate(960.8157402106584 1125.4665501912425) rotate(0 191.3333638509116 153.999989827474)"><path d="M1.17 0.96 C64.64 51.96, 318.31 255.78, 381.99 307.07 M0.32 0.41 C64.08 52.05, 320.6 257.08, 384.34 308.13" stroke="#1e1e1e" stroke-width="2" fill="none"></path></g><g transform="translate(960.8157402106584 1125.4665501912425) rotate(0 191.3333638509116 153.999989827474)"><path d="M360.66 300.12 C371.75 301.95, 378.04 307.24, 384.34 308.13 M360.66 300.12 C368.41 302.48, 376.85 305.09, 384.34 308.13" stroke="#1e1e1e" stroke-width="2" fill="none"></path></g><g transform="translate(960.8157402106584 1125.4665501912425) rotate(0 191.3333638509116 153.999989827474)"><path d="M371.34 286.77 C378.3 294.01, 380.34 304.62, 384.34 308.13 M371.34 286.77 C375.35 293.94, 379.98 301.32, 384.34 308.13" stroke="#1e1e1e" stroke-width="2" fill="none"></path></g></g><mask></mask><g stroke-linecap="round"><g transform="translate(788.8155164150861 401.46666208902974) rotate(0 -1.33331298828125 179.99989827473942)"><path d="M0.38 0.06 C0.07 60.11, -0.95 300.45, -1.5 360.42 M-0.89 -0.95 C-1.28 58.72, -1.35 298.17, -1.83 358.51" stroke="#1e1e1e" stroke-width="2" fill="none"></path></g><g transform="translate(788.8155164150861 401.46666208902974) rotate(0 -1.33331298828125 179.99989827473942)"><path d="M-10.3 334.99 C-7.37 344.67, -3.99 350.13, -1.83 358.51 M-10.3 334.99 C-7.95 341.36, -5.6 349.04, -1.83 358.51" stroke="#1e1e1e" stroke-width="2" fill="none"></path></g><g transform="translate(788.8155164150861 401.46666208902974) rotate(0 -1.33331298828125 179.99989827473942)"><path d="M6.81 335.05 C4.09 344.76, 1.83 350.2, -1.83 358.51 M6.81 335.05 C4.24 341.56, 1.69 349.23, -1.83 358.51" stroke="#1e1e1e" stroke-width="2" fill="none"></path></g></g><mask></mask><g transform="translate(456.8157355044018 891.7993690996957) rotate(358.2413286040995 14.902153015136719 16.101270115920272)"><text x="0" y="22.56754019447387" font-family="Virgil, Segoe UI Emoji" font-size="25.762032185472457px" fill="#1e1e1e" text-anchor="start" style="white-space: pre;" direction="ltr" dominant-baseline="alphabetic">N:1</text></g><g transform="translate(731.4822441169089 536.7999521891269) rotate(0 14.903325398763002 16.101270115920272)"><text x="0" y="22.567540194473864" font-family="Virgil, Segoe UI Emoji" font-size="25.76203218547245px" fill="#1e1e1e" text-anchor="start" style="white-space: pre;" direction="ltr" dominant-baseline="alphabetic">N:1</text></g><g transform="translate(1056.8155977952943 675.4665883382154) rotate(0 14.655323282877589 15.833333333333314)"><text x="0" y="22.191999999999982" font-family="Virgil, Segoe UI Emoji" font-size="25.333333333333314px" fill="#1e1e1e" text-anchor="start" style="white-space: pre;" direction="ltr" dominant-baseline="alphabetic">1:N</text></g><g transform="translate(1089.2455446947083 933.633244832356) rotate(0 14.903325398763059 16.10127011592033)"><text x="0" y="22.567540194473917" font-family="Virgil, Segoe UI Emoji" font-size="25.76203218547251px" fill="#1e1e1e" text-anchor="start" style="white-space: pre;" direction="ltr" dominant-baseline="alphabetic">1:N</text></g><g transform="translate(1057.2456260749168 1132.2999318440748) rotate(0 15.889436938489382 17.166646321614508)"><text x="0" y="24.060771484374875" font-family="Virgil, Segoe UI Emoji" font-size="27.466634114583186px" fill="#1e1e1e" text-anchor="start" style="white-space: pre;" direction="ltr" dominant-baseline="alphabetic">1:N</text></g></svg>